<svg xmlns="http://www.w3.org/2000/svg" viewBox="0 0 1200 630" role="img" aria-labelledby="title desc">
  <title id="title">BuildCostLab social image</title>
  <desc id="desc">BuildCostLab brand image for social previews.</desc>
  <defs>
    <linearGradient id="bg" x1="0%" y1="0%" x2="100%" y2="100%">
      <stop offset="0%" stop-color="#0f2034"/>
      <stop offset="100%" stop-color="#17375b"/>
    </linearGradient>
    <linearGradient id="accent" x1="0%" y1="0%" x2="100%" y2="100%">
      <stop offset="0%" stop-color="#4f8fff"/>
      <stop offset="100%" stop-color="#78c0ff"/>
    </linearGradient>
  </defs>
  <rect width="1200" height="630" fill="url(#bg)"/>
  <g opacity=".12">
    <path d="M0 120H1200M0 240H1200M0 360H1200M0 480H1200M120 0V630M240 0V630M360 0V630M480 0V630M600 0V630M720 0V630M840 0V630M960 0V630M1080 0V630" stroke="#d8e6ff" stroke-width="1"/>
  </g>
  <g transform="translate(96 132)">
    <rect x="0" y="0" width="154" height="154" rx="38" fill="#f5f9ff"/>
    <path d="M38 116V42H56V96H118V116Z" fill="#102033"/>
    <path d="M48 94L70 72L87 87L116 54" fill="none" stroke="url(#accent)" stroke-linecap="round" stroke-linejoin="round" stroke-width="14"/>
    <circle cx="116" cy="54" r="8" fill="#4f8fff"/>
  </g>
  <text x="290" y="258" fill="#f7fbff" font-family="Segoe UI, Inter, Arial, sans-serif" font-size="94" font-weight="800" letter-spacing="-2.5">BuildCost</text>
  <text x="828" y="258" fill="#78c0ff" font-family="Segoe UI, Inter, Arial, sans-serif" font-size="94" font-weight="800" letter-spacing="-2.5">Lab</text>
  <text x="292" y="334" fill="#d6e4f7" font-family="Segoe UI, Inter, Arial, sans-serif" font-size="34" font-weight="600">Material calculators, estimating guides, and cost-planning tools</text>
  <text x="292" y="396" fill="#8fb4e5" font-family="Segoe UI, Inter, Arial, sans-serif" font-size="28" font-weight="600">buildcostlab.com</text>
</svg>
